<svg id="Layer_1" data-name="Layer 1" xmlns="http://www.w3.org/2000/svg" viewBox="0 0 419.33 135.79"><defs><style>.cls-1{fill:#1d1d1b;}</style></defs><title>gum</title><path class="cls-1" d="M97.15,84.09q0,25.39-12.79,38.55T45.45,135.79a104.79,104.79,0,0,1-23.55-2.67A53.3,53.3,0,0,1,.55,122.73L15.82,99.91a57.8,57.8,0,0,0,13.52,8.46A38.07,38.07,0,0,0,44.9,111.5q12.7,0,18.68-6.16t6-15.73V81h-.37a26,26,0,0,1-11.87,9.11A38,38,0,0,1,44,92.74a46.06,46.06,0,0,1-18-3.4,40.15,40.15,0,0,1-13.89-9.57A42.63,42.63,0,0,1,3.13,65.14,53.18,53.18,0,0,1,0,46.55a53.77,53.77,0,0,1,2.85-17.3,47.27,47.27,0,0,1,8.1-14.9A40.63,40.63,0,0,1,23.74,4,36.29,36.29,0,0,1,40.85,0a41.61,41.61,0,0,1,19.5,4.6A32.2,32.2,0,0,1,67,9.11,28.66,28.66,0,0,1,71.39,14h.37V2.21H97.15ZM27.6,46.37a21.56,21.56,0,0,0,6.35,15.36,24.23,24.23,0,0,0,7,4.88,21.46,21.46,0,0,0,17.39,0,23.9,23.9,0,0,0,7.08-4.88,21.71,21.71,0,0,0,0-30.73,24,24,0,0,0-7.08-4.88,21.46,21.46,0,0,0-17.39,0,24.28,24.28,0,0,0-7,4.88A21.56,21.56,0,0,0,27.6,46.37Z"/><path class="cls-1" d="M205.34,91.63h-26.5V79.49h-.37a30.61,30.61,0,0,1-3.77,5.15,24.71,24.71,0,0,1-5.61,4.6,32.56,32.56,0,0,1-7.54,3.31,31.53,31.53,0,0,1-9.2,1.29q-10.49,0-17-3.22a24.33,24.33,0,0,1-10.12-8.92,34.94,34.94,0,0,1-4.78-13.43,109.43,109.43,0,0,1-1.2-16.74V2.21h27.6V46q0,3.86.28,8a25.23,25.23,0,0,0,1.66,7.64,13.15,13.15,0,0,0,4.23,5.7q2.85,2.21,8.19,2.21a17,17,0,0,0,8.65-1.93,13.17,13.17,0,0,0,5.06-5.15,21.06,21.06,0,0,0,2.3-7.27,62.58,62.58,0,0,0,.55-8.46V2.21h27.6Z"/><path class="cls-1" d="M224.84,2.21h26.5V14.35h.37a22.32,22.32,0,0,1,3.68-5.15,26.82,26.82,0,0,1,5.7-4.6,32.68,32.68,0,0,1,7.54-3.31A31.54,31.54,0,0,1,277.84,0a34.94,34.94,0,0,1,16.65,3.86A24.48,24.48,0,0,1,305.44,16Q310.22,7.36,317,3.68T333.77,0q9,0,15.18,3a24.84,24.84,0,0,1,9.75,8.28,35,35,0,0,1,5.15,12.33,70.5,70.5,0,0,1,1.56,15.18V91.63h-27.6V39.56a20.79,20.79,0,0,0-2.67-10.76q-2.67-4.51-9.48-4.51a18.26,18.26,0,0,0-8,1.56,13.18,13.18,0,0,0-5.15,4.32,18,18,0,0,0-2.76,6.44,35.16,35.16,0,0,0-.83,7.73V91.63h-27.6V44.34q0-2.39-.18-5.89a23.6,23.6,0,0,0-1.29-6.62,12.69,12.69,0,0,0-3.59-5.34q-2.48-2.21-7.27-2.21a17,17,0,0,0-8.65,1.93,13.17,13.17,0,0,0-5.06,5.15,21,21,0,0,0-2.3,7.27,62.7,62.7,0,0,0-.55,8.46V91.63h-27.6Z"/><path class="cls-1" d="M385.48,75.81a17.23,17.23,0,0,1,1.29-6.62,16.28,16.28,0,0,1,9-9,17.68,17.68,0,0,1,13.25,0,16.27,16.27,0,0,1,9,9,17.69,17.69,0,0,1,0,13.25,16.27,16.27,0,0,1-9,9,17.68,17.68,0,0,1-13.25,0,16.27,16.27,0,0,1-9-9A17.2,17.2,0,0,1,385.48,75.81Z"/></svg>