<?xml version="1.0" encoding="utf-8"?>
<!-- Generator: Adobe Illustrator 21.1.0, SVG Export Plug-In . SVG Version: 6.00 Build 0)  -->
<!DOCTYPE svg PUBLIC "-//W3C//DTD SVG 1.1//EN" "http://www.w3.org/Graphics/SVG/1.1/DTD/svg11.dtd">
<svg version="1.1" id="Layer_1" xmlns="http://www.w3.org/2000/svg" xmlns:xlink="http://www.w3.org/1999/xlink" x="0px" y="0px"
	 viewBox="0 0 419.3 135.8" style="enable-background:new 0 0 419.3 135.8;" xml:space="preserve">
<g>
	<path d="M97.2,84.1c0,16.9-4.3,29.8-12.8,38.5c-8.5,8.8-21.5,13.2-38.9,13.2c-8,0-15.8-0.9-23.6-2.7c-7.7-1.8-14.8-5.2-21.3-10.4
		l15.3-22.8c4.3,3.6,8.8,6.4,13.5,8.5c4.7,2.1,9.9,3.1,15.5,3.1c8.5,0,14.7-2.1,18.7-6.2c4-4.1,6-9.4,6-15.7V81h-0.4
		c-3.2,4.3-7.1,7.3-11.9,9.1c-4.7,1.8-9.2,2.7-13.3,2.7c-6.6,0-12.6-1.1-18-3.4c-5.4-2.3-10-5.5-13.9-9.6c-3.9-4.1-6.8-9-8.9-14.6
		C1,59.5,0,53.3,0,46.6c0-5.9,0.9-11.7,2.9-17.3c1.9-5.6,4.6-10.6,8.1-14.9c3.5-4.3,7.8-7.8,12.8-10.4c5-2.6,10.7-4,17.1-4
		c3.9,0,7.5,0.4,10.8,1.3c3.2,0.9,6.2,2,8.7,3.3C62.9,6,65.1,7.5,67,9.1c1.8,1.7,3.3,3.3,4.4,4.9h0.4V2.2h25.4V84.1z M27.6,46.4
		c0,2.9,0.6,5.7,1.7,8.4c1.1,2.6,2.7,5,4.7,7c2,2,4.4,3.7,7,4.9c2.6,1.2,5.5,1.8,8.7,1.8c3.1,0,5.9-0.6,8.6-1.8
		c2.7-1.2,5.1-2.9,7.1-4.9s3.6-4.4,4.7-7c1.1-2.6,1.7-5.4,1.7-8.4c0-2.9-0.6-5.7-1.7-8.4c-1.1-2.6-2.7-5-4.7-7s-4.4-3.6-7.1-4.9
		c-2.7-1.2-5.6-1.8-8.6-1.8c-3.2,0-6.1,0.6-8.7,1.8c-2.6,1.2-5,2.9-7,4.9c-2,2-3.6,4.4-4.7,7C28.2,40.6,27.6,43.4,27.6,46.4z"/>
	<path d="M205.3,91.6h-26.5V79.5h-0.4c-1,1.7-2.2,3.4-3.8,5.2c-1.5,1.7-3.4,3.3-5.6,4.6c-2.2,1.4-4.7,2.5-7.5,3.3
		c-2.8,0.9-5.9,1.3-9.2,1.3c-7,0-12.7-1.1-17-3.2c-4.4-2.1-7.7-5.1-10.1-8.9c-2.4-3.8-4-8.3-4.8-13.4c-0.8-5.2-1.2-10.7-1.2-16.7
		V2.2h27.6V46c0,2.6,0.1,5.2,0.3,8c0.2,2.8,0.7,5.3,1.7,7.6c0.9,2.3,2.3,4.2,4.2,5.7c1.9,1.5,4.6,2.2,8.2,2.2c3.6,0,6.4-0.6,8.6-1.9
		c2.2-1.3,3.9-3,5.1-5.2c1.2-2.1,1.9-4.6,2.3-7.3c0.4-2.7,0.6-5.5,0.6-8.5V2.2h27.6V91.6z"/>
	<path d="M224.8,2.2h26.5v12.1h0.4c0.9-1.7,2.1-3.4,3.7-5.2c1.6-1.7,3.5-3.2,5.7-4.6c2.2-1.3,4.7-2.5,7.5-3.3
		c2.8-0.9,5.9-1.3,9.2-1.3c6.3,0,11.8,1.3,16.7,3.9c4.8,2.6,8.5,6.6,10.9,12.1c3.2-5.8,7.1-9.9,11.6-12.3c4.5-2.5,10.1-3.7,16.7-3.7
		c6,0,11.1,1,15.2,3c4.1,2,7.4,4.8,9.8,8.3s4.1,7.6,5.2,12.3c1,4.7,1.6,9.8,1.6,15.2v52.8h-27.6V39.6c0-4.2-0.9-7.8-2.7-10.8
		c-1.8-3-4.9-4.5-9.5-4.5c-3.2,0-5.9,0.5-8,1.6c-2.1,1-3.9,2.5-5.2,4.3c-1.3,1.8-2.2,4-2.8,6.4c-0.6,2.5-0.8,5-0.8,7.7v47.3h-27.6
		V44.3c0-1.6-0.1-3.6-0.2-5.9c-0.1-2.3-0.6-4.5-1.3-6.6c-0.7-2.1-1.9-3.9-3.6-5.3c-1.7-1.5-4.1-2.2-7.3-2.2c-3.6,0-6.4,0.6-8.6,1.9
		s-3.9,3-5.1,5.2c-1.2,2.1-1.9,4.6-2.3,7.3c-0.4,2.7-0.6,5.5-0.6,8.5v44.5h-27.6V2.2z"/>
	<path d="M385.5,75.8c0-2.3,0.4-4.5,1.3-6.6c0.9-2.1,2.1-3.9,3.6-5.4c1.5-1.5,3.3-2.7,5.4-3.6c2.1-0.9,4.3-1.3,6.6-1.3
		c2.3,0,4.5,0.4,6.6,1.3c2.1,0.9,3.9,2.1,5.4,3.6c1.5,1.5,2.7,3.3,3.6,5.4c0.9,2.1,1.3,4.3,1.3,6.6c0,2.3-0.4,4.5-1.3,6.6
		c-0.9,2.1-2.1,3.9-3.6,5.4c-1.5,1.5-3.3,2.7-5.4,3.6c-2.1,0.9-4.3,1.3-6.6,1.3c-2.3,0-4.5-0.4-6.6-1.3c-2.1-0.9-3.9-2.1-5.4-3.6
		c-1.5-1.5-2.7-3.3-3.6-5.4C385.9,80.3,385.5,78.1,385.5,75.8z"/>
</g>
</svg>
